PathFileType	4	(X/Y/Z)	C:\Users\°ÂÌØÂü\Desktop\20210112\bx_n_10_502-Unnamed.trc
DataRate	CameraRate	NumFrames	NumMarkers	Units	OrigDataRate	OrigDataStartFrame	OrigNumFrames
50.00	50.00	       4	0	mm	50.00	1	       473
Frame#	Time	
		

1	0.000	-710.60236	299.68048	1522.53455	-566.87152	5.10869	1054.68103	-665.37317	294.59515	870.98535	-560.19373	3.41850	802.75494	-563.96204	221.92348	812.73883	-676.00568	277.05173	742.57477	-709.43005	255.59422	641.81445				-674.46887	148.25964	577.69623	-713.42725	251.04152	576.21851	-649.57538	21.81155	517.75000	-756.61255	259.80371	502.87216	-661.90717	209.11021	532.81793	-714.84436	70.94028	216.14037	-710.20135	152.73537	216.48837	-766.82941	226.28909	205.76903	-882.56708	296.11902	144.63147	-671.52081	52.96133	158.95282	-674.06934	171.35809	157.09894	-590.53070	219.62274	173.51961	-660.84113	298.31091	157.87103	-624.46136	306.89774	158.47542	-555.24054	257.58749	164.55237	-527.99078	304.21622	146.57008	-661.76288	134.51772	1844.73779				-517.29425	-72.83565	143.26549	-548.85504	-30.29644	164.34801	-794.58362	176.62924	184.36053	-678.95715	-61.88956	1533.52283	-791.01312	40.68169	175.06305	-773.58331	100.91199	1047.90515	-746.21539	-38.97829	492.11911	-596.83154	24.95409	167.31706	-757.35583	-17.95050	208.68909	-875.97607	-78.80654	141.45569	-632.10907	-64.55471	872.28210	-657.64386	-54.82034	758.74481	-607.56390	-76.15183	157.11668	-649.38635	-68.66634	160.79880	-591.37317	118.11808	1353.07300	-582.72235	254.71936	1064.30078	-674.40662	79.31925	573.14276	-687.34039	-29.25050	616.59375	-698.20728	-27.14077	569.91302	
2	0.020	-710.69354	299.70071	1522.65320	-566.92896	5.18300	1054.68091	-665.33386	294.47992	870.78387	-559.83667	2.66302	802.80298	-563.90948	221.85173	812.80365	-676.31110	276.67477	742.33923	-709.25952	255.55173	641.86426				-674.47516	148.48753	577.39771	-713.38855	250.86026	576.20227	-649.50543	21.85237	517.67084	-756.64703	259.93829	503.04684	-661.86554	208.83887	532.83417	-714.82385	70.66109	215.71899	-710.43701	152.76202	216.54811	-766.79706	226.40323	205.71002	-882.43286	296.19171	144.73412	-671.60876	52.98293	158.82162	-674.06934	171.35809	157.09894	-590.46295	219.44838	173.40189	-660.60828	298.29446	157.98703	-624.33197	306.85815	158.41202	-555.38104	257.49985	164.46474	-527.90778	304.36624	146.72336	-661.97748	134.23668	1844.74023				-517.34430	-72.96584	143.25774	-548.80548	-30.47699	164.23634	-794.48907	176.66408	184.20804	-679.01886	-62.01688	1533.51880	-790.83533	40.43937	175.25081	-773.60785	100.87116	1047.83777	-746.20490	-38.87786	492.04642	-596.70221	25.08102	167.55840	-757.33746	-17.86434	208.65137	-875.93073	-78.79627	141.25227	-632.19513	-64.64469	872.27338	-657.58667	-55.20930	759.03326	-607.41547	-76.21775	157.04462	-649.60120	-68.84599	161.03271	-591.70416	118.14519	1352.76160	-582.67181	254.68214	1064.37195	-674.79559	79.51053	573.20630	-687.32953	-29.41084	616.79694	-698.19141	-27.17051	569.83679	
3	0.040	-710.78979	299.66376	1522.63586	-566.94580	5.26186	1054.59241	-665.33386	294.47992	870.78387	-559.77448	2.87302	802.70795	-564.15924	221.52046	813.05872	-676.10388	277.05112	742.53040	-709.57690	255.72382	641.99432				-674.39856	148.34828	577.80688	-713.41077	251.01619	576.15167	-649.48370	21.71995	517.75629	-756.60370	259.99329	503.01828	-661.90070	209.02490	533.02069	-714.80249	70.84136	215.96838	-710.39838	152.66299	216.39722	-767.04291	226.27927	205.97815	-882.66156	296.05743	144.63533	-671.69446	53.08907	158.68762	-674.06934	171.35809	157.09894	-590.46295	219.44838	173.40189	-660.74805	298.24023	157.88156	-624.51538	307.02103	158.47171	-555.46948	257.47812	164.40637	-528.11450	304.37653	146.40186	-661.94495	134.34357	1844.76758				-517.29425	-72.83565	143.26549	-548.77661	-30.44362	164.29739	-794.42413	176.58788	184.23413	-679.25824	-62.12415	1533.45093	-790.93207	40.46247	175.14711	-773.59052	100.86172	1047.83105	-745.95367	-38.99422	491.96948	-596.74469	24.97099	167.45737	-757.33746	-17.86434	208.65137	-876.04169	-78.95963	141.37299	-632.11664	-64.69113	872.34125	-657.64386	-54.82034	758.74481	-607.51868	-76.28547	157.21095	-649.37482	-68.82729	160.99828	-591.64075	118.19719	1352.94995	-582.69885	254.65506	1064.37195	-674.62219	79.40882	573.16290	-687.86810	-28.69666	616.48474	-698.12921	-26.98506	569.63647	
4	0.060	-710.73950	299.64822	1522.64294	-567.00177	5.27038	1054.79224	-665.48877	294.64035	871.06366	-560.07410	2.93782	802.85461	-564.18176	221.60025	812.94818	-676.54352	276.58978	742.17963	-709.44269	255.53508	641.87531				-674.69092	148.09282	577.70966	-713.35223	251.15056	576.21405	-649.56378	21.72222	517.88910	-756.74103	259.90717	502.94617	-661.85059	209.14091	532.96063	-714.94299	71.00945	216.00142	-710.26294	152.69894	216.39445	-766.97607	226.30676	206.02899	-882.49835	296.27173	144.77898	-671.77240	52.98543	158.87076	-674.06934	171.35809	157.09894	-590.46295	219.44838	173.40189	-660.84851	298.22589	157.79465	-624.34283	306.90173	158.64832	-555.22430	257.44022	164.26868	-528.12280	304.28763	146.42749	-662.21826	134.17378	1844.88269				-517.32941	-72.80983	143.16060	-548.81305	-30.53730	164.12708	-794.55188	176.47186	183.87386	-679.32373	-62.13054	1533.41089	-790.83533	40.43937	175.25081	-773.74237	100.84792	1047.99463	-746.15198	-38.96274	492.07928	-596.91840	24.93722	167.17682	-757.33746	-17.86434	208.65137	-875.95648	-78.79716	141.44162	-632.34619	-64.49342	872.12836	-657.73267	-55.38576	758.81458	-607.53912	-76.22231	157.06078	-649.30902	-68.61720	160.87958	-591.67749	118.21057	1352.84314	-582.81525	254.66438	1064.53418	-674.60632	79.30692	573.23438	-687.78912	-28.71025	616.61816	-698.16760	-27.21913	569.86346	
